<?xml version="1.0" standalone="no"?>
<!DOCTYPE svg PUBLIC "-//W3C//DTD SVG 20010904//EN"
 "http://www.w3.org/TR/2001/REC-SVG-20010904/DTD/svg10.dtd">
<svg version="1.0" xmlns="http://www.w3.org/2000/svg"
 width="612.000000pt" height="345.000000pt" viewBox="0 0 612.000000 345.000000"
 preserveAspectRatio="xMidYMid meet">

<g transform="translate(0.000000,345.000000) scale(0.100000,-0.100000)"
fill="#000000" stroke="none">
<path d="M0 1725 l0 -1725 3060 0 3060 0 0 1725 0 1725 -3060 0 -3060 0 0
-1725z m5324 1601 c-3 -8 -13 -17 -22 -21 -13 -5 -13 -2 3 15 21 24 26 25 19
6z m-64 -59 c-31 -26 -94 -100 -80 -93 8 4 6 0 -4 -8 -11 -9 -24 -16 -29 -16
-5 0 -22 -13 -37 -29 -52 -52 -179 -68 -605 -76 -201 -5 -300 -11 -350 -22
-88 -20 -95 -23 -180 -93 -38 -31 -83 -65 -100 -75 -16 -10 -48 -33 -71 -51
-49 -39 -232 -164 -240 -164 -10 0 -57 -40 -48 -40 5 0 1 -5 -8 -11 -10 -5
-18 -21 -18 -35 0 -14 -4 -23 -9 -19 -5 3 -15 -21 -21 -52 -6 -32 -15 -69 -21
-83 -5 -14 -22 -73 -38 -132 -26 -95 -28 -115 -20 -175 4 -37 9 -108 9 -158 0
-56 4 -85 9 -76 7 11 10 10 13 -5 2 -15 8 -11 25 18 39 66 84 179 97 240 7 34
16 55 21 51 5 -4 3 0 -4 10 -12 15 -10 23 13 57 16 24 31 38 38 34 7 -5 8 -3
3 6 -4 7 -4 15 1 19 11 8 41 57 59 98 8 17 24 34 35 38 11 3 20 11 20 16 0 5
6 9 13 7 19 -4 117 43 111 53 -3 5 8 14 23 21 15 7 55 29 89 50 86 53 119 63
206 63 42 0 74 3 71 8 -2 4 -2 7 1 7 2 0 13 3 23 6 15 5 15 4 3 -5 -13 -9 -12
-11 5 -11 11 0 40 5 65 11 30 7 46 7 48 0 10 -31 181 -216 190 -206 3 3 -1 13
-9 22 -13 16 -12 17 4 4 9 -7 17 -20 17 -27 0 -8 7 -14 16 -14 9 0 12 -5 8
-12 -4 -6 -3 -8 4 -4 6 3 15 1 21 -6 6 -7 24 -29 41 -49 35 -43 36 -52 10 -99
l-19 -35 5 32 c6 29 4 33 -22 39 -16 3 -47 10 -68 16 -22 5 -119 9 -216 9
-164 -1 -180 0 -236 23 -84 34 -165 41 -239 21 -33 -9 -86 -23 -117 -31 -46
-11 -65 -22 -100 -60 -91 -99 -100 -125 -80 -239 l7 -40 17 24 c10 13 15 28
12 33 -3 4 3 11 13 15 10 4 40 26 67 50 114 101 190 126 345 111 101 -10 159
-29 220 -73 74 -54 173 -184 198 -259 9 -29 10 -27 70 80 34 60 73 132 87 159
l26 50 -5 -55 c-11 -111 -16 -133 -41 -182 -14 -28 -27 -60 -28 -72 -1 -11
-10 -32 -18 -46 -18 -27 -52 -160 -43 -168 2 -3 12 12 21 34 16 40 30 54 51
54 6 0 -2 -14 -18 -31 -29 -31 -34 -55 -31 -127 1 -20 -2 -31 -8 -27 -6 3 -10
24 -10 46 0 21 -4 39 -10 39 -13 0 -13 -75 1 -123 18 -67 105 -85 156 -32 12
13 19 26 15 31 -4 4 -2 4 5 0 16 -9 6 -34 -25 -68 -21 -22 -35 -28 -69 -28
-53 0 -115 36 -138 81 -9 17 -18 29 -20 27 -3 -2 -32 -58 -66 -123 -34 -66
-75 -139 -90 -162 -16 -23 -29 -44 -29 -47 0 -3 -18 -31 -40 -62 -22 -32 -40
-61 -40 -64 0 -9 39 -23 56 -21 20 2 25 -29 6 -35 -9 -4 -39 -17 -67 -30 -51
-24 -50 -27 20 -39 22 -4 44 -9 48 -12 5 -3 28 -7 52 -9 52 -4 72 -8 153 -29
47 -12 71 -14 95 -6 18 5 53 13 78 16 37 6 47 4 52 -9 4 -9 2 -16 -2 -16 -5 0
-11 4 -13 10 -3 10 -88 -8 -88 -19 0 -8 117 -42 143 -42 9 0 15 -4 12 -9 -3
-4 5 -6 17 -2 12 3 17 7 10 10 -9 3 -8 7 2 18 21 21 42 18 25 -3 -12 -15 -12
-16 4 -10 9 3 17 3 17 -2 0 -14 -44 -30 -145 -51 -119 -25 -135 -29 -135 -38
0 -7 73 -42 86 -42 3 0 11 -6 18 -13 11 -11 11 -16 0 -32 -8 -10 -14 -13 -14
-7 0 7 -7 12 -15 12 -9 0 -18 7 -22 16 -4 11 -8 12 -13 4 -6 -9 -26 -4 -78 20
-52 24 -76 30 -93 24 -13 -4 -27 -7 -32 -6 -4 1 -6 -3 -5 -10 2 -6 -5 -14 -16
-16 -11 -2 -16 0 -12 7 9 14 -4 14 -126 -4 -146 -22 -149 -23 -145 -51 1 -13
6 -26 10 -30 14 -15 6 -23 -20 -20 -16 1 -27 8 -25 14 1 7 -2 11 -7 10 -5 -2
-16 5 -24 16 -13 18 -17 17 -111 -18 -95 -35 -140 -44 -150 -28 -9 14 10 33
39 38 65 12 60 23 -10 25 -49 2 -58 4 -27 6 28 3 42 9 42 18 0 9 6 12 16 8 13
-5 13 -7 2 -14 -9 -6 -5 -8 12 -8 33 1 130 26 107 28 -10 0 -29 8 -42 17 -17
11 -36 14 -62 10 -21 -3 -90 -11 -153 -16 -64 -6 -117 -16 -121 -22 -6 -9 -11
-9 -22 1 -10 7 -41 11 -84 10 -73 -2 -92 -7 -73 -19 8 -5 7 -9 -4 -13 -10 -4
-16 -1 -16 8 0 8 -7 15 -15 15 -8 0 -15 5 -15 10 0 6 11 10 25 10 14 0 25 6
25 13 0 9 2 9 9 -1 11 -19 236 -6 269 15 17 10 27 11 37 3 11 -9 102 -4 92 6
-2 3 -77 25 -166 50 -114 33 -170 44 -189 39 -15 -4 -21 -10 -14 -12 16 -6 5
-23 -15 -23 -10 0 -13 6 -9 15 5 14 -3 15 -57 10 -34 -3 -84 -7 -112 -9 l-50
-4 50 13 c28 7 70 14 95 14 25 1 51 5 58 9 17 11 -75 32 -140 32 -28 0 -48 3
-44 7 3 4 -4 13 -16 21 -22 12 -21 13 15 8 21 -3 48 -1 60 4 12 5 48 12 81 15
65 7 65 24 -1 29 -22 2 -48 8 -59 13 -10 6 -41 16 -69 23 -27 8 -59 19 -70 26
-17 10 -236 89 -305 109 -43 13 -131 77 -128 93 2 11 29 21 80 32 43 9 81 19
84 23 11 11 -78 49 -240 102 -209 69 -261 88 -280 104 -9 8 -58 39 -109 71
-91 56 -92 57 -92 96 0 33 4 40 23 42 30 4 28 15 -5 30 -16 7 -37 18 -48 25
-57 35 -185 107 -190 107 -3 0 -19 10 -35 21 -25 19 -36 21 -97 14 -65 -7 -67
-8 -46 -22 28 -18 29 -29 5 -36 -9 -2 -26 -8 -37 -12 -19 -6 -19 -6 -2 8 16
13 16 15 1 28 -23 19 -213 29 -230 12 -9 -10 -13 -10 -17 1 -4 10 -27 14 -83
15 -42 0 -80 3 -83 6 -14 15 28 21 126 18 68 -1 101 1 88 7 -11 4 -38 6 -60 4
-27 -3 -34 -2 -21 4 17 7 14 11 -22 25 -52 21 -54 28 -4 15 20 -5 58 -12 85
-15 49 -6 60 4 31 28 -15 12 -54 81 -54 96 0 4 7 -2 16 -13 14 -17 22 -18 80
-9 55 8 66 13 70 32 4 13 11 23 16 23 6 0 8 7 5 14 -4 9 -1 13 6 10 7 -2 18 5
25 16 9 15 9 20 1 20 -7 0 0 10 14 23 15 12 28 31 30 42 2 11 7 27 10 35 9 22
3 69 -8 67 -5 -1 -8 5 -6 13 2 8 3 26 3 40 0 14 5 28 10 31 6 4 7 12 4 18 -4
6 -12 8 -18 5 -6 -4 -5 2 1 15 12 22 7 41 -11 41 -5 0 -8 -7 -4 -15 3 -8 1
-15 -5 -15 -7 0 -10 -14 -7 -35 5 -45 -4 -45 -18 -1 -6 19 -8 35 -5 34 19 -2
20 4 5 19 -15 16 -15 17 2 24 14 6 15 8 4 9 -8 2 -19 2 -23 1 -4 -1 -3 7 3 18
8 16 5 23 -16 40 -28 22 -85 37 -109 28 -8 -4 -17 -2 -20 3 -11 18 73 11 129
-11 102 -38 155 -128 141 -238 -6 -49 -65 -189 -94 -225 -9 -11 -61 -106 -61
-112 0 -1 8 -5 18 -7 10 -3 6 -5 -10 -6 -45 -2 -32 -17 30 -35 31 -9 71 -21
89 -27 17 -5 61 -10 96 -11 36 0 72 -5 79 -10 9 -7 2 -8 -20 -4 -42 7 -35 -4
20 -32 24 -13 55 -31 70 -40 104 -65 192 -115 215 -121 42 -11 38 -28 -9 -43
-72 -24 -64 -44 45 -111 79 -49 129 -70 332 -137 132 -44 254 -87 270 -96 84
-48 104 -64 99 -79 -4 -8 -12 -15 -19 -15 -7 0 -45 -7 -85 -16 -60 -14 -70
-19 -58 -30 15 -15 322 -124 438 -155 240 -65 250 -67 315 -49 35 9 59 21 57
28 -1 7 10 12 29 12 24 0 30 -4 25 -15 -3 -9 0 -15 8 -15 7 0 19 -7 26 -15 10
-12 8 -16 -11 -24 -13 -5 -21 -10 -18 -10 3 -1 56 -10 117 -21 106 -19 182
-23 182 -8 0 10 -30 38 -41 38 -6 0 -8 4 -4 10 3 5 -5 26 -18 47 -37 60 -80
140 -65 122 7 -9 28 -39 47 -65 19 -28 36 -43 39 -36 3 9 15 11 40 6 21 -4 34
-3 30 1 -4 4 -2 13 5 19 9 10 15 9 31 -6 17 -16 21 -16 36 -3 9 8 22 15 28 15
7 0 12 5 12 11 0 6 7 3 16 -5 8 -9 21 -16 27 -16 8 0 8 3 2 8 -11 7 -12 18 -2
42 3 8 8 22 11 30 3 8 5 4 5 -10 -2 -51 0 -55 17 -32 8 12 13 31 9 41 -4 14 2
21 25 31 33 14 36 21 18 53 -10 20 -10 21 5 9 18 -15 37 -8 37 14 0 8 5 14 11
14 5 0 17 17 26 38 8 20 20 40 25 43 15 9 -21 59 -37 53 -8 -3 -15 -12 -17
-20 -2 -9 -7 -11 -18 -4 -13 9 -13 11 0 20 8 5 12 10 8 11 -5 1 -12 3 -18 4
-5 1 -13 3 -17 4 -4 0 2 8 13 16 16 13 17 16 4 25 -13 8 -12 10 5 11 11 1 27
2 35 3 8 2 23 3 33 4 18 2 24 37 7 47 -5 3 -15 15 -20 25 -9 16 -8 18 6 13 13
-5 15 -3 9 8 -5 7 4 3 20 -10 l30 -23 6 44 c7 46 3 62 -12 53 -5 -4 -9 1 -9 9
0 21 -9 20 -34 -1 -12 -10 -9 -4 7 13 15 17 24 34 20 38 -4 4 1 4 12 0 17 -7
15 -1 -9 42 -16 27 -23 43 -15 37 19 -18 29 -16 29 5 0 11 -10 24 -22 30 -18
8 -19 11 -5 11 19 1 20 3 11 25 -5 13 -10 14 -20 6 -10 -10 -11 -6 -1 19 6 16
15 28 19 25 4 -3 8 0 8 6 0 7 -7 9 -15 6 -10 -4 -19 2 -25 17 -8 21 -9 20 -11
-8 l-1 -30 -8 30 c-7 28 -8 29 -9 5 0 -14 5 -50 13 -80 16 -63 9 -122 -24
-198 -21 -47 -75 -112 -93 -112 -6 0 10 22 35 48 54 57 72 106 72 187 -1 70
-19 117 -65 169 -39 45 -141 96 -192 96 -100 0 -227 -82 -232 -149 0 -9 -9
-28 -18 -41 -25 -36 -23 -130 4 -183 38 -74 72 -109 129 -135 65 -29 143 -32
210 -9 25 8 36 10 26 4 -27 -17 -53 -42 -58 -58 -3 -8 -9 -10 -14 -6 -5 4 -2
12 6 17 25 15 8 18 -75 10 -47 -4 -85 -3 -92 3 -38 29 -128 77 -147 78 -16 1
-17 2 -4 6 15 4 15 7 -4 39 -11 19 -21 34 -23 34 -2 0 -9 -16 -15 -36 -10 -30
-10 -38 1 -45 11 -7 11 -9 1 -9 -8 0 -10 -5 -6 -12 5 -7 2 -9 -9 -5 -9 3 -18
3 -20 -1 -2 -4 -2 -1 0 7 2 7 -5 20 -14 27 -15 11 -16 15 -4 23 11 7 10 12 -5
28 -11 11 -20 26 -22 34 -1 8 -8 24 -14 37 l-12 23 -13 -23 c-12 -22 -12 -22
-7 8 4 23 2 33 -11 37 -12 5 -15 2 -12 -11 3 -9 8 -30 12 -46 5 -23 10 -27 28
-23 20 6 20 5 5 -7 -10 -7 -18 -18 -18 -24 0 -10 29 -26 43 -24 4 1 7 -7 7
-18 0 -17 -2 -17 -26 7 -14 14 -27 23 -30 21 -2 -3 3 -27 11 -54 17 -55 18
-66 6 -44 -18 31 -49 137 -55 184 -8 65 -19 77 -55 63 -36 -13 -77 -2 -92 25
-6 12 -11 59 -10 110 1 49 -3 105 -8 126 -27 101 -17 162 76 482 14 47 28 95
30 108 3 12 11 22 17 22 7 0 41 25 77 55 35 30 89 72 119 94 31 21 62 47 70
57 14 16 13 17 -5 10 -92 -35 -309 -95 -345 -96 -16 0 -38 -15 -62 -41 -21
-23 -36 -44 -34 -47 3 -2 -5 -21 -18 -41 -55 -89 -102 -202 -77 -187 5 4 12 2
16 -4 3 -5 -3 -10 -14 -10 -12 0 -20 -3 -19 -7 1 -5 -4 -20 -9 -34 -6 -14 -17
-44 -24 -67 -7 -23 -14 -40 -16 -38 -8 7 47 182 82 266 20 47 41 99 48 115 17
47 62 98 109 122 50 26 243 95 408 147 88 27 123 43 150 69 54 51 78 64 167
87 76 19 110 20 400 20 417 -1 469 3 558 46 39 19 95 56 125 84 30 27 60 49
65 49 6 0 3 -5 -5 -12z m-1085 -266 c7 -12 -12 -24 -25 -16 -11 7 -4 25 10 25
5 0 11 -4 15 -9z m-65 -47 c0 -8 -7 -14 -15 -14 -8 0 -15 9 -15 20 0 13 5 18
15 14 8 -4 15 -12 15 -20z m1086 -41 c-10 -10 -19 5 -10 18 6 11 8 11 12 0 2
-7 1 -15 -2 -18z m-241 -93 c3 -5 1 -10 -4 -10 -6 0 -11 5 -11 10 0 6 2 10 4
10 3 0 8 -4 11 -10z m-345 -30 c0 -5 -4 -10 -10 -10 -5 0 -10 5 -10 10 0 6 5
10 10 10 6 0 10 -4 10 -10z m-730 -90 c0 -5 -7 -10 -15 -10 -8 0 -15 5 -15 10
0 6 7 10 15 10 8 0 15 -4 15 -10z m-2427 -100 c-13 -5 -23 -14 -23 -20 0 -6
-5 -8 -11 -5 -13 8 19 35 41 34 8 0 5 -4 -7 -9z m1877 -44 c0 -3 -4 -8 -10
-11 -5 -3 -10 -1 -10 4 0 6 5 11 10 11 6 0 10 -2 10 -4z m-1972 -36 c-1 -17
-6 -34 -11 -37 -6 -4 -8 0 -4 11 4 9 3 15 -2 12 -4 -3 -11 -26 -14 -52 -2 -26
-9 -49 -15 -53 -5 -3 -12 -15 -15 -26 -2 -11 -5 2 -6 29 -1 39 5 59 30 98 17
26 33 48 34 48 2 0 3 -14 3 -30z m2282 20 c0 -5 -4 -10 -10 -10 -5 0 -10 5
-10 10 0 6 5 10 10 10 6 0 10 -4 10 -10z m900 0 c0 -5 -5 -10 -11 -10 -5 0 -7
5 -4 10 3 6 8 10 11 10 2 0 4 -4 4 -10z m-2926 -46 c3 -8 -4 -7 -25 4 -16 9
-29 20 -29 24 0 12 48 -13 54 -28z m-205 -51 c-42 -98 29 -194 135 -181 30 3
32 2 23 -14 -7 -11 -14 -13 -18 -6 -4 6 -25 9 -47 6 -22 -2 -39 -1 -36 1 2 2
-10 12 -26 23 -69 42 -89 126 -44 185 14 18 27 33 29 33 2 0 -5 -21 -16 -47z
m-56 8 c2 -10 1 -25 -4 -32 -6 -10 -9 -4 -9 19 0 36 5 42 13 13z m-46 -133
c-3 -7 -5 -2 -5 12 0 14 2 19 5 13 2 -7 2 -19 0 -25z m63 -24 c0 -8 -4 -12
-10 -9 -5 3 -10 10 -10 16 0 5 5 9 10 9 6 0 10 -7 10 -16z m310 -14 c0 -5 -2
-10 -4 -10 -3 0 -8 5 -11 10 -3 6 -1 10 4 10 6 0 11 -4 11 -10z m3170 0 c0 -5
-4 -10 -10 -10 -5 0 -10 5 -10 10 0 6 5 10 10 10 6 0 10 -4 10 -10z m-760 -25
c0 -8 -7 -15 -15 -15 -16 0 -20 12 -8 23 11 12 23 8 23 -8z m-2413 -27 c-3 -8
-6 -5 -6 6 -1 11 2 17 5 13 3 -3 4 -12 1 -19z m2138 12 c3 -5 -1 -10 -10 -10
-9 0 -13 5 -10 10 3 6 8 10 10 10 2 0 7 -4 10 -10z m-2345 -14 c0 -3 -4 -8
-10 -11 -5 -3 -10 -1 -10 4 0 6 5 11 10 11 6 0 10 -2 10 -4z m70 -6 c0 -5 -4
-10 -10 -10 -5 0 -10 5 -10 10 0 6 5 10 10 10 6 0 10 -4 10 -10z m40 -5 c0 -8
-7 -15 -16 -15 -14 0 -14 3 -4 15 7 8 14 15 16 15 2 0 4 -7 4 -15z m70 -10
c-7 -8 -16 -12 -21 -9 -13 8 -1 24 18 24 13 0 13 -3 3 -15z m1510 -15 c0 -11
-2 -20 -4 -20 -2 0 -6 9 -9 20 -3 11 -1 20 4 20 5 0 9 -9 9 -20z m-1780 -11
c0 -5 11 -27 25 -49 14 -22 22 -40 18 -40 -7 0 -24 24 -60 87 -12 19 -11 22 2
17 8 -4 15 -10 15 -15z m127 -5 c-9 -9 -28 6 -21 18 4 6 10 6 17 -1 6 -6 8
-13 4 -17z m95 -21 c-3 -17 -7 -22 -10 -13 -3 8 -10 18 -16 23 -8 5 -7 10 4
16 21 14 28 5 22 -26z m-152 7 c0 -5 -2 -10 -4 -10 -3 0 -8 5 -11 10 -3 6 -1
10 4 10 6 0 11 -4 11 -10z m40 -16 c0 -8 -4 -12 -10 -9 -5 3 -10 10 -10 16 0
5 5 9 10 9 6 0 10 -7 10 -16z m1667 -46 c-3 -8 -6 -5 -6 6 -1 11 2 17 5 13 3
-3 4 -12 1 -19z m-1597 -18 c0 -5 -5 -10 -11 -10 -5 0 -7 5 -4 10 3 6 8 10 11
10 2 0 4 -4 4 -10z m1610 -55 c5 3 11 1 15 -5 3 -6 -1 -13 -9 -16 -9 -3 -16
-16 -16 -28 0 -12 -5 -27 -12 -34 -9 -9 -7 -17 11 -34 22 -20 27 -20 70 -9 25
7 58 24 74 38 21 21 27 23 27 10 0 -22 -65 -84 -97 -92 -39 -9 -92 12 -99 41
-6 23 -11 25 -55 23 -35 -2 -54 2 -69 16 -23 21 -30 75 -7 56 8 -6 17 -8 20
-4 4 3 7 0 7 -8 1 -16 68 -51 75 -38 3 4 12 6 19 3 10 -4 16 11 22 58 4 35 10
53 12 40 2 -12 7 -20 12 -17z m1005 -145 c3 -5 1 -10 -4 -10 -6 0 -11 5 -11
10 0 6 2 10 4 10 3 0 8 -4 11 -10z m-2325 -20 c-8 -5 -30 -10 -47 -10 -18 0
-33 -4 -33 -10 0 -5 -7 -10 -15 -10 -31 0 -14 19 23 25 20 4 42 8 47 10 6 2
17 4 25 4 13 1 13 0 0 -9z m-215 -40 c-11 -5 -27 -9 -35 -9 -9 0 -8 4 5 9 11
5 27 9 35 9 9 0 8 -4 -5 -9z m170 0 c3 -5 -1 -10 -9 -10 -9 0 -16 5 -16 10 0
6 4 10 9 10 6 0 13 -4 16 -10z m1982 -332 c-3 -8 -6 -5 -6 6 -1 11 2 17 5 13
3 -3 4 -12 1 -19z m-151 -55 c29 -66 52 -95 67 -86 6 4 8 -2 5 -15 -4 -12 -2
-25 3 -28 9 -5 71 -124 65 -124 -16 0 -137 209 -166 286 -19 48 2 23 26 -33z
m489 39 c-3 -3 -11 0 -18 7 -9 10 -8 11 6 5 10 -3 15 -9 12 -12z m-245 -6 c0
-2 -7 -7 -16 -10 -8 -3 -12 -2 -9 4 6 10 25 14 25 6z m-90 -58 c0 -4 -4 -8
-10 -8 -5 0 -10 5 -10 12 0 6 -8 21 -17 32 -13 15 -10 14 10 -3 15 -14 27 -28
27 -33z m410 38 c0 -2 -9 -6 -20 -9 -11 -3 -18 -1 -14 4 5 9 34 13 34 5z
m-174 -17 c7 -12 -15 -31 -28 -23 -4 3 -8 12 -8 20 0 17 26 19 36 3z m-156 -9
c0 -5 -4 -10 -10 -10 -5 0 -10 5 -10 10 0 6 5 10 10 10 6 0 10 -4 10 -10z
m253 -20 c-4 -16 -11 -18 -31 -13 -16 4 -23 2 -18 -5 4 -6 -2 -8 -14 -5 -20 5
-20 6 -3 22 10 10 30 18 44 19 23 2 26 -1 22 -18z m-147 -50 c-1 -8 -8 -22
-17 -30 -9 -8 -19 -25 -23 -38 -8 -23 -26 -26 -34 -4 -2 7 3 12 11 12 8 0 17
7 21 15 3 9 0 15 -10 15 -8 0 -13 4 -9 9 3 6 -3 15 -12 21 -16 10 -15 10 5 5
12 -4 22 -3 22 2 0 4 11 8 23 8 15 0 24 -6 23 -15z m184 -26 c0 -7 -5 -16 -11
-19 -6 -4 -8 -14 -5 -22 3 -8 1 -11 -4 -8 -6 3 -10 13 -10 20 0 8 -6 12 -14 9
-8 -3 -17 -1 -21 5 -3 7 2 11 14 11 14 0 19 5 15 14 -4 11 0 13 15 9 12 -3 21
-11 21 -19z m107 10 c-3 -3 -12 -4 -19 -1 -8 3 -5 6 6 6 11 1 17 -2 13 -5z
m-250 -10 c-3 -3 -12 -4 -19 -1 -8 3 -5 6 6 6 11 1 17 -2 13 -5z m-172 -33
c-3 -6 -11 -8 -17 -5 -6 4 -5 9 3 15 16 10 23 4 14 -10z m326 -8 c13 -16 12
-17 -3 -4 -17 13 -22 21 -14 21 2 0 10 -8 17 -17z m-25 -29 c18 -14 18 -14 -6
-3 -31 14 -36 19 -24 19 6 0 19 -7 30 -16z m-126 -34 c0 -5 -2 -10 -4 -10 -3
0 -8 5 -11 10 -3 6 -1 10 4 10 6 0 11 -4 11 -10z m-124 -67 c-10 -10 -19 5
-10 18 6 11 8 11 12 0 2 -7 1 -15 -2 -18z m174 -24 c0 -11 -4 -17 -10 -14 -5
3 -10 13 -10 21 0 8 5 14 10 14 6 0 10 -9 10 -21z m-45 -49 c3 -5 -1 -10 -9
-10 -9 0 -16 5 -16 10 0 6 4 10 9 10 6 0 13 -4 16 -10z m245 -30 c0 -5 -2 -10
-4 -10 -3 0 -8 5 -11 10 -3 6 -1 10 4 10 6 0 11 -4 11 -10z m-820 -40 c0 -5
-4 -10 -10 -10 -5 0 -10 5 -10 10 0 6 5 10 10 10 6 0 10 -4 10 -10z m368 -2
c-7 -19 -38 -22 -38 -4 0 10 9 16 21 16 12 0 19 -5 17 -12z m899 -4 c-3 -3
-12 -4 -19 -1 -8 3 -5 6 6 6 11 1 17 -2 13 -5z m-1624 -71 c-7 -2 -19 -2 -25
0 -7 3 -2 5 12 5 14 0 19 -2 13 -5z m-48 -44 c11 -17 2 -18 -19 -3 -17 12 -17
14 -4 14 9 0 20 -5 23 -11z m85 -9 c8 -5 11 -10 5 -10 -5 0 -17 5 -25 10 -8 5
-10 10 -5 10 6 0 17 -5 25 -10z m-465 -30 c3 -5 -1 -10 -10 -10 -9 0 -13 5
-10 10 3 6 8 10 10 10 2 0 7 -4 10 -10z m450 -38 c-7 -8 -35 7 -35 18 0 6 7 6
20 -2 10 -7 17 -14 15 -16z m979 -173 c-3 -5 -10 -7 -15 -3 -5 3 -7 10 -3 15
3 5 10 7 15 3 5 -3 7 -10 3 -15z m86 -115 c0 -8 -4 -12 -10 -9 -5 3 -10 10
-10 16 0 5 5 9 10 9 6 0 10 -7 10 -16z"/>
<path d="M3830 2443 c-26 -5 -60 -30 -60 -44 0 -5 7 -6 15 -3 8 4 13 10 10 14
-8 12 27 22 39 10 12 -12 39 -13 32 -1 -3 5 1 11 8 14 8 3 17 2 20 -4 2 -5 3
-4 2 3 -3 14 -27 18 -66 11z"/>
<path d="M3938 2143 c6 -2 18 -2 25 0 6 3 1 5 -13 5 -14 0 -19 -2 -12 -5z"/>
<path d="M3891 2131 c-11 -7 -11 -9 0 -14 8 -4 2 -4 -13 -1 -19 4 -29 1 -37
-13 -10 -17 -12 -17 -25 0 -7 9 -18 17 -24 17 -6 0 -16 -8 -21 -17 -10 -17
-10 -17 -11 -1 0 9 -4 20 -10 23 -14 9 -77 -56 -77 -79 0 -18 1 -18 13 -1 12
16 13 15 11 -13 -1 -18 -7 -32 -13 -32 -16 0 -24 -24 -14 -40 7 -11 11 -10 24
3 9 8 16 19 16 24 0 5 9 15 19 22 11 8 17 20 14 27 -2 7 0 21 5 31 8 13 9 8 5
-22 -3 -22 -6 -50 -6 -62 -1 -13 -6 -23 -12 -23 -5 0 -2 -7 7 -14 10 -7 15
-16 11 -19 -3 -4 -1 -7 5 -7 7 0 12 6 13 13 0 13 82 70 117 81 12 4 22 11 22
15 0 5 38 8 85 7 47 0 85 2 85 6 0 4 -5 18 -11 32 -18 38 -40 41 -67 10 -13
-14 -25 -24 -28 -22 -2 3 5 13 16 23 24 22 26 37 3 28 -11 -4 -14 -3 -9 5 5 8
-2 12 -23 12 -16 0 -35 2 -43 5 -7 3 -19 1 -27 -4z m-149 -33 c-7 -7 -12 -8
-12 -2 0 14 12 26 19 19 2 -3 -1 -11 -7 -17z m228 7 c0 -2 -13 -7 -28 -13 -21
-7 -29 -7 -29 2 0 6 13 11 29 12 15 1 28 0 28 -1z"/>
<path d="M4077 2129 c7 -7 15 -10 18 -7 3 3 -2 9 -12 12 -14 6 -15 5 -6 -5z"/>
<path d="M3825 2120 c3 -5 8 -10 11 -10 2 0 4 5 4 10 0 6 -5 10 -11 10 -5 0
-7 -4 -4 -10z"/>
<path d="M4070 2097 c0 -8 7 -20 15 -27 8 -6 13 -17 12 -23 -1 -6 15 -16 36
-21 24 -6 36 -14 33 -23 -3 -7 3 -18 12 -25 9 -7 30 -28 45 -46 20 -25 27 -29
27 -16 0 10 -7 26 -17 36 -10 12 -12 18 -4 18 7 0 9 5 6 10 -4 6 -10 8 -14 5
-5 -2 -17 2 -27 10 -18 15 -18 15 1 9 l20 -6 -20 13 c-11 6 -27 19 -36 28 -9
9 -25 23 -36 31 -10 8 -26 21 -36 29 -15 11 -17 11 -17 -2z"/>
<path d="M4150 2065 c25 -27 45 -32 56 -14 4 8 -1 9 -17 4 -13 -4 -21 -4 -17
0 4 5 0 14 -10 21 -29 22 -37 15 -12 -11z"/>
<path d="M4218 2032 c-17 -7 -17 -8 1 -19 17 -11 20 -10 18 7 -1 11 -1 20 -2
19 0 0 -8 -4 -17 -7z"/>
<path d="M1550 1961 c0 -4 11 -6 25 -3 14 2 25 6 25 8 0 2 -11 4 -25 4 -14 0
-25 -4 -25 -9z"/>
<path d="M4304 1946 c0 -14 6 -22 13 -19 9 4 10 10 2 24 -13 25 -17 24 -15 -5z"/>
<path d="M3640 1951 c0 -5 7 -11 14 -14 10 -4 13 -1 9 9 -6 15 -23 19 -23 5z"/>
<path d="M3704 1947 c-3 -9 -11 -14 -17 -10 -6 3 -7 1 -3 -5 8 -14 32 -16 40
-4 2 4 1 14 -4 22 -7 12 -10 12 -16 -3z"/>
<path d="M1580 1940 c0 -10 13 -14 37 -11 6 1 14 -2 16 -7 7 -10 87 -3 87 8 0
4 -14 10 -31 14 -48 9 -109 7 -109 -4z"/>
<path d="M3656 1893 c-6 -14 -5 -15 5 -6 7 7 10 15 7 18 -3 3 -9 -2 -12 -12z"/>
<path d="M3700 1875 c1 -26 2 -28 11 -12 8 14 8 22 0 30 -8 8 -11 3 -11 -18z"/>
<path d="M4332 1878 c-7 -9 -7 -18 3 -31 13 -17 14 -17 20 3 9 27 -7 46 -23
28z"/>
<path d="M3648 1794 c-10 -21 -9 -27 3 -35 20 -12 26 -11 26 6 0 8 -7 15 -16
16 -14 0 -14 1 -1 7 17 8 25 32 10 32 -6 0 -16 -12 -22 -26z"/>
<path d="M3691 1804 c0 -11 3 -14 6 -6 3 7 2 16 -1 19 -3 4 -6 -2 -5 -13z"/>
<path d="M3610 1745 c-7 -58 12 -80 51 -59 32 16 35 24 17 42 -18 18 -48 15
-49 -5 -1 -10 -5 -4 -9 12 -6 22 -8 25 -10 10z"/>
<path d="M3670 1677 c-14 -6 -27 -12 -29 -14 -9 -6 23 -63 35 -63 8 0 14 1 14
3 0 1 4 16 9 33 12 42 3 54 -29 41z"/>
<path d="M4372 1630 c0 -14 2 -19 5 -12 2 6 2 18 0 25 -3 6 -5 1 -5 -13z"/>
<path d="M4360 1560 c0 -11 5 -20 10 -20 6 0 10 9 10 20 0 11 -4 20 -10 20 -5
0 -10 -9 -10 -20z"/>
<path d="M4315 1530 c-3 -5 -1 -10 5 -10 6 0 8 -4 5 -10 -3 -5 -1 -10 4 -10
13 0 14 27 2 35 -5 3 -12 1 -16 -5z"/>
<path d="M4337 1483 c-11 -3 -17 -12 -15 -25 2 -12 -3 -23 -11 -26 -9 -3 -11
1 -6 17 6 20 4 21 -22 15 -51 -13 -67 -45 -25 -49 29 -4 52 -17 46 -26 -3 -5
-1 -9 4 -9 12 0 32 45 32 73 0 18 2 19 10 7 8 -12 10 -11 10 8 0 12 -1 21 -2
21 -2 -1 -11 -3 -21 -6z"/>
<path d="M4218 1033 c7 -3 16 -2 19 1 4 3 -2 6 -13 5 -11 0 -14 -3 -6 -6z"/>
<path d="M4067 916 c-15 -23 -15 -24 6 -30 13 -3 32 -3 43 0 16 4 23 0 27 -17
5 -19 8 -20 22 -9 14 12 18 12 25 0 5 -8 24 -14 45 -13 45 1 167 24 162 30 -9
9 -194 50 -253 57 -57 6 -62 5 -77 -18z"/>
<path d="M3390 896 l-75 -12 53 -13 c43 -11 68 -11 140 0 l87 12 -60 13 c-33
7 -62 13 -65 12 -3 0 -39 -6 -80 -12z"/>
<path d="M3615 866 c-5 -3 -37 -8 -70 -12 l-60 -7 80 -18 c44 -10 94 -16 110
-13 49 8 88 13 130 14 37 1 38 2 15 11 -13 6 -35 7 -49 4 -13 -3 -27 -1 -31 5
-7 11 -106 23 -125 16z"/>
<path d="M4425 855 c-5 -2 -36 -9 -68 -15 -32 -7 -56 -14 -53 -17 3 -3 31 -15
62 -25 53 -18 60 -18 137 -3 143 28 139 25 67 46 -60 17 -120 23 -145 14z m13
-27 c-6 -18 -28 -21 -28 -4 0 9 7 16 16 16 9 0 14 -5 12 -12z"/>
<path d="M3720 810 c-44 -6 -44 -6 -15 -14 17 -4 39 -11 50 -16 36 -16 88 -23
81 -12 -3 6 -1 14 4 17 17 10 -21 35 -50 33 -14 0 -45 -4 -70 -8z"/>
<path d="M4160 778 c0 -3 -9 -4 -20 -1 -11 3 -27 0 -34 -7 -8 -6 -23 -10 -33
-9 -10 1 -51 -1 -91 -5 -72 -8 -73 -8 -45 -23 35 -18 82 -23 136 -12 23 4 59
10 80 14 23 4 37 11 37 20 0 8 5 15 10 15 6 0 10 3 10 8 0 4 -11 7 -25 7 -14
0 -25 -3 -25 -7z"/>
<path d="M4250 770 c8 -5 26 -9 40 -9 23 0 23 1 5 9 -11 5 -29 9 -40 9 -17 1
-17 -1 -5 -9z"/>
</g>
</svg>
